<?xml version="1.0" encoding="utf-8"?>
<!-- Generator: Adobe Illustrator 17.0.0, SVG Export Plug-In . SVG Version: 6.00 Build 0)  -->
<!DOCTYPE svg PUBLIC "-//W3C//DTD SVG 1.1//EN" "http://www.w3.org/Graphics/SVG/1.1/DTD/svg11.dtd">
<svg version="1.1" id="레이어_1" xmlns="http://www.w3.org/2000/svg" xmlns:xlink="http://www.w3.org/1999/xlink" x="0px"
	 y="0px" width="8.751px" height="8.944px" viewBox="293.264 416.474 8.751 8.944"
	 enable-background="new 293.264 416.474 8.751 8.944" xml:space="preserve">
<g>
	<g>
		<g>
			<path fill="#FFFFFF" d="M293.264,416.474h3.424c0.887,0,1.662,0.104,2.332,0.315c0.666,0.207,1.223,0.503,1.665,0.886
				c0.442,0.383,0.776,0.847,0.998,1.387c0.221,0.541,0.332,1.143,0.332,1.807v0.025c0,0.666-0.113,1.274-0.339,1.829
				c-0.227,0.553-0.566,1.03-1.022,1.431c-0.456,0.4-1.021,0.711-1.697,0.932c-0.68,0.222-1.469,0.332-2.371,0.332h-3.321v-8.944
				H293.264z M296.752,422.81c0.691,0,1.236-0.146,1.641-0.442c0.405-0.292,0.608-0.765,0.608-1.41v-0.025
				c0-0.647-0.203-1.118-0.608-1.412c-0.404-0.295-0.949-0.44-1.641-0.44h-0.499v3.729L296.752,422.81L296.752,422.81z"/>
		</g>
	</g>
</g>
</svg>
